<mxfile host="app.diagrams.net" modified="2023-06-28T01:23:21.357Z" agent="Mozilla/5.0 (Windows NT 10.0; Win64; x64) AppleWebKit/537.36 (KHTML, like Gecko) Chrome/114.0.0.0 Safari/537.36" etag="NyOLOvpsev86o_cuUgml" version="21.5.0" type="github">
  <diagram name="Page-1" id="12e1b939-464a-85fe-373e-61e167be1490">
    <mxGraphModel dx="2928.5" dy="1160" grid="1" gridSize="10" guides="1" tooltips="1" connect="1" arrows="1" fold="1" page="1" pageScale="1.5" pageWidth="1169" pageHeight="826" background="none" math="0" shadow="0">
      <root>
        <mxCell id="0" />
        <mxCell id="1" parent="0" />
        <mxCell id="60da8b9f42644d3a-17" value="" style="whiteSpace=wrap;html=1;rounded=1;shadow=0;strokeWidth=4;fontSize=20;align=center;fillColor=#f5f5f5;strokeColor=#666666;fontColor=#333333;" parent="1" vertex="1">
          <mxGeometry x="-10" y="490" width="1440" height="440.63" as="geometry" />
        </mxCell>
        <mxCell id="jB-KWvpnfY8Uh8r2w3W6-16" style="edgeStyle=orthogonalEdgeStyle;orthogonalLoop=1;jettySize=auto;html=1;exitX=0.5;exitY=1;exitDx=0;exitDy=0;entryX=0.5;entryY=1;entryDx=0;entryDy=0;curved=1;strokeColor=#FF0000;strokeWidth=3;" edge="1" parent="1" source="60da8b9f42644d3a-8" target="60da8b9f42644d3a-22">
          <mxGeometry relative="1" as="geometry">
            <Array as="points">
              <mxPoint x="257" y="760" />
              <mxPoint x="518" y="760" />
              <mxPoint x="518" y="726" />
            </Array>
          </mxGeometry>
        </mxCell>
        <mxCell id="jB-KWvpnfY8Uh8r2w3W6-19" value="&lt;b&gt;&lt;font color=&quot;#0000ff&quot; style=&quot;font-size: 20px;&quot;&gt;业务评测数据&lt;/font&gt;&lt;/b&gt;" style="edgeLabel;html=1;align=center;verticalAlign=middle;resizable=0;points=[];" vertex="1" connectable="0" parent="jB-KWvpnfY8Uh8r2w3W6-16">
          <mxGeometry x="0.163" y="4" relative="1" as="geometry">
            <mxPoint as="offset" />
          </mxGeometry>
        </mxCell>
        <mxCell id="jB-KWvpnfY8Uh8r2w3W6-24" style="edgeStyle=orthogonalEdgeStyle;orthogonalLoop=1;jettySize=auto;html=1;exitX=0;exitY=0.5;exitDx=0;exitDy=0;curved=1;entryX=1;entryY=0.5;entryDx=0;entryDy=0;strokeWidth=2;" edge="1" parent="1" source="60da8b9f42644d3a-8" target="jB-KWvpnfY8Uh8r2w3W6-22">
          <mxGeometry relative="1" as="geometry">
            <Array as="points">
              <mxPoint x="180" y="667" />
              <mxPoint x="180" y="626" />
            </Array>
          </mxGeometry>
        </mxCell>
        <mxCell id="jB-KWvpnfY8Uh8r2w3W6-25" style="edgeStyle=orthogonalEdgeStyle;orthogonalLoop=1;jettySize=auto;html=1;entryX=1;entryY=0.5;entryDx=0;entryDy=0;curved=1;strokeWidth=2;" edge="1" parent="1" target="jB-KWvpnfY8Uh8r2w3W6-23">
          <mxGeometry relative="1" as="geometry">
            <mxPoint x="200" y="670" as="sourcePoint" />
            <Array as="points">
              <mxPoint x="200" y="671" />
              <mxPoint x="180" y="671" />
              <mxPoint x="180" y="710" />
            </Array>
          </mxGeometry>
        </mxCell>
        <mxCell id="jB-KWvpnfY8Uh8r2w3W6-35" style="edgeStyle=orthogonalEdgeStyle;orthogonalLoop=1;jettySize=auto;html=1;exitX=0.5;exitY=1;exitDx=0;exitDy=0;entryX=0;entryY=0.5;entryDx=0;entryDy=0;curved=1;strokeWidth=4;" edge="1" parent="1" source="60da8b9f42644d3a-8" target="60da8b9f42644d3a-29">
          <mxGeometry relative="1" as="geometry" />
        </mxCell>
        <mxCell id="jB-KWvpnfY8Uh8r2w3W6-38" value="&lt;font style=&quot;font-size: 20px;&quot;&gt;&lt;b&gt;专有场景数据&lt;/b&gt;&lt;/font&gt;" style="edgeLabel;html=1;align=center;verticalAlign=middle;resizable=0;points=[];" vertex="1" connectable="0" parent="jB-KWvpnfY8Uh8r2w3W6-35">
          <mxGeometry x="0.0455" y="10" relative="1" as="geometry">
            <mxPoint x="7" as="offset" />
          </mxGeometry>
        </mxCell>
        <mxCell id="60da8b9f42644d3a-8" value="&lt;span style=&quot;font-size: 20px;&quot;&gt;&lt;font style=&quot;font-size: 20px;&quot;&gt;数据治理&lt;/font&gt;&lt;/span&gt;" style="ellipse;whiteSpace=wrap;html=1;rounded=0;shadow=0;strokeWidth=6;fontSize=20;align=center;fillColor=#999900;strokeColor=#FFFFFF;fontColor=#FFFFFF;fontStyle=1" parent="1" vertex="1">
          <mxGeometry x="200" y="610" width="115" height="115" as="geometry" />
        </mxCell>
        <mxCell id="60da8b9f42644d3a-22" value="设备装置评测" style="ellipse;whiteSpace=wrap;html=1;rounded=0;shadow=0;strokeWidth=6;fontSize=20;align=center;fillColor=#006600;strokeColor=#FFFFFF;fontColor=#FFFFFF;fontStyle=1" parent="1" vertex="1">
          <mxGeometry x="460" y="611" width="115" height="115" as="geometry" />
        </mxCell>
        <mxCell id="60da8b9f42644d3a-23" value="算法调优" style="html=1;shadow=0;dashed=0;align=center;verticalAlign=middle;shape=mxgraph.arrows2.stylisedArrow;dy=0.6;dx=40;notch=15;feather=0.4;rounded=0;strokeWidth=1;fontSize=20;strokeColor=none;fillColor=#333333;fontColor=#FFFFFF;fontStyle=1" parent="1" vertex="1">
          <mxGeometry x="900" y="735" width="127" height="60" as="geometry" />
        </mxCell>
        <mxCell id="60da8b9f42644d3a-29" value="模型训练" style="ellipse;whiteSpace=wrap;html=1;rounded=0;shadow=0;strokeWidth=6;fontSize=20;align=center;fillColor=#FF8000;strokeColor=#FFFFFF;fontColor=#FFFFFF;fontStyle=1" parent="1" vertex="1">
          <mxGeometry x="1042" y="774" width="115" height="115" as="geometry" />
        </mxCell>
        <mxCell id="60da8b9f42644d3a-30" value="算法评测" style="html=1;shadow=0;dashed=0;align=center;verticalAlign=middle;shape=mxgraph.arrows2.stylisedArrow;dy=0.6;dx=40;notch=15;feather=0.4;rounded=0;strokeWidth=1;fontSize=20;strokeColor=none;fillColor=#333333;fontColor=#FFFFFF;fontStyle=1" parent="1" vertex="1">
          <mxGeometry x="1170" y="800.5" width="113" height="60" as="geometry" />
        </mxCell>
        <mxCell id="jB-KWvpnfY8Uh8r2w3W6-39" style="edgeStyle=orthogonalEdgeStyle;orthogonalLoop=1;jettySize=auto;html=1;exitX=0.5;exitY=0;exitDx=0;exitDy=0;entryX=0.5;entryY=0;entryDx=0;entryDy=0;curved=1;strokeWidth=5;" edge="1" parent="1" source="60da8b9f42644d3a-36" target="60da8b9f42644d3a-22">
          <mxGeometry relative="1" as="geometry">
            <Array as="points">
              <mxPoint x="1358" y="520" />
              <mxPoint x="518" y="520" />
            </Array>
          </mxGeometry>
        </mxCell>
        <mxCell id="jB-KWvpnfY8Uh8r2w3W6-40" value="&lt;b style=&quot;border-color: var(--border-color); font-size: 20px;&quot;&gt;更新算法模型，重新评测&lt;/b&gt;" style="edgeLabel;html=1;align=center;verticalAlign=middle;resizable=0;points=[];" vertex="1" connectable="0" parent="jB-KWvpnfY8Uh8r2w3W6-39">
          <mxGeometry x="-0.1349" y="9" relative="1" as="geometry">
            <mxPoint x="92" as="offset" />
          </mxGeometry>
        </mxCell>
        <mxCell id="60da8b9f42644d3a-36" value="算法指标评测" style="ellipse;whiteSpace=wrap;html=1;rounded=0;shadow=0;strokeWidth=6;fontSize=20;align=center;fillColor=#333333;strokeColor=#FFFFFF;fontColor=#FFFFFF;fontStyle=1" parent="1" vertex="1">
          <mxGeometry x="1300" y="771.5" width="115" height="115" as="geometry" />
        </mxCell>
        <mxCell id="60da8b9f42644d3a-37" value="业务评测" style="html=1;shadow=0;dashed=0;align=center;verticalAlign=middle;shape=mxgraph.arrows2.stylisedArrow;dy=0.6;dx=40;notch=15;feather=0.4;rounded=0;strokeWidth=1;fontSize=20;strokeColor=none;fillColor=#333333;fontColor=#FFFFFF;fontStyle=1;direction=east;" parent="1" vertex="1">
          <mxGeometry x="600" y="650" width="150" height="57.5" as="geometry" />
        </mxCell>
        <mxCell id="60da8b9f42644d3a-38" value="&lt;b&gt;评测通过&lt;/b&gt;" style="ellipse;whiteSpace=wrap;html=1;rounded=0;shadow=0;strokeWidth=6;fontSize=20;align=center;fillColor=#0000FF;strokeColor=#FFFFFF;fontColor=#FFFFFF;" parent="1" vertex="1">
          <mxGeometry x="750" y="555" width="115" height="115" as="geometry" />
        </mxCell>
        <mxCell id="jB-KWvpnfY8Uh8r2w3W6-11" style="edgeStyle=orthogonalEdgeStyle;rounded=0;orthogonalLoop=1;jettySize=auto;html=1;strokeWidth=3;strokeColor=#f70808;" edge="1" parent="1" source="jB-KWvpnfY8Uh8r2w3W6-10" target="60da8b9f42644d3a-22">
          <mxGeometry relative="1" as="geometry">
            <Array as="points">
              <mxPoint x="410" y="670" />
              <mxPoint x="410" y="670" />
            </Array>
          </mxGeometry>
        </mxCell>
        <mxCell id="jB-KWvpnfY8Uh8r2w3W6-13" style="edgeStyle=orthogonalEdgeStyle;rounded=0;orthogonalLoop=1;jettySize=auto;html=1;entryX=1;entryY=0.5;entryDx=0;entryDy=0;strokeWidth=3;strokeColor=#333333;" edge="1" parent="1" source="jB-KWvpnfY8Uh8r2w3W6-10" target="60da8b9f42644d3a-8">
          <mxGeometry relative="1" as="geometry" />
        </mxCell>
        <mxCell id="jB-KWvpnfY8Uh8r2w3W6-10" value="评测人员" style="shape=umlActor;verticalLabelPosition=bottom;verticalAlign=top;html=1;outlineConnect=0;strokeWidth=3;" vertex="1" parent="1">
          <mxGeometry x="360" y="627.5" width="40" height="80" as="geometry" />
        </mxCell>
        <mxCell id="jB-KWvpnfY8Uh8r2w3W6-22" value="统一视频平台" style="ellipse;whiteSpace=wrap;html=1;gradientColor=#FFB366;" vertex="1" parent="1">
          <mxGeometry x="20" y="586" width="120" height="80" as="geometry" />
        </mxCell>
        <mxCell id="jB-KWvpnfY8Uh8r2w3W6-23" value="非结构化平台" style="ellipse;whiteSpace=wrap;html=1;gradientColor=#FFB366;" vertex="1" parent="1">
          <mxGeometry x="20" y="670" width="120" height="80" as="geometry" />
        </mxCell>
        <mxCell id="jB-KWvpnfY8Uh8r2w3W6-26" value="&lt;font style=&quot;font-size: 16px;&quot;&gt;样本收集&lt;/font&gt;" style="text;html=1;strokeColor=none;fillColor=none;align=center;verticalAlign=middle;whiteSpace=wrap;rounded=0;" vertex="1" parent="1">
          <mxGeometry x="130" y="654" width="40" height="30" as="geometry" />
        </mxCell>
        <mxCell id="jB-KWvpnfY8Uh8r2w3W6-33" style="edgeStyle=orthogonalEdgeStyle;orthogonalLoop=1;jettySize=auto;html=1;exitX=1;exitY=0.5;exitDx=0;exitDy=0;entryX=0.5;entryY=0;entryDx=0;entryDy=0;curved=1;strokeWidth=4;" edge="1" parent="1" source="jB-KWvpnfY8Uh8r2w3W6-27" target="60da8b9f42644d3a-22">
          <mxGeometry relative="1" as="geometry">
            <Array as="points">
              <mxPoint x="1177" y="698" />
              <mxPoint x="1177" y="530" />
              <mxPoint x="518" y="530" />
            </Array>
          </mxGeometry>
        </mxCell>
        <mxCell id="jB-KWvpnfY8Uh8r2w3W6-36" value="&lt;span style=&quot;font-size: 20px;&quot;&gt;&lt;b&gt;更新算法模型，重新评测&lt;/b&gt;&lt;/span&gt;" style="edgeLabel;html=1;align=center;verticalAlign=middle;resizable=0;points=[];" vertex="1" connectable="0" parent="jB-KWvpnfY8Uh8r2w3W6-33">
          <mxGeometry x="-0.2392" y="8" relative="1" as="geometry">
            <mxPoint x="-146" as="offset" />
          </mxGeometry>
        </mxCell>
        <mxCell id="jB-KWvpnfY8Uh8r2w3W6-27" value="私域调用" style="ellipse;whiteSpace=wrap;html=1;rounded=0;shadow=0;strokeWidth=6;fontSize=20;align=center;fillColor=#999999;strokeColor=#FFFFFF;fontColor=#FFFFFF;fontStyle=1" vertex="1" parent="1">
          <mxGeometry x="1042" y="640" width="115" height="115" as="geometry" />
        </mxCell>
        <mxCell id="jB-KWvpnfY8Uh8r2w3W6-31" value="评测不通过" style="ellipse;whiteSpace=wrap;html=1;rounded=0;shadow=0;strokeWidth=6;fontSize=20;align=center;fillColor=#FF0000;strokeColor=#FFFFFF;fontColor=#FFFFFF;fontStyle=1" vertex="1" parent="1">
          <mxGeometry x="750" y="707.5" width="115" height="115" as="geometry" />
        </mxCell>
      </root>
    </mxGraphModel>
  </diagram>
</mxfile>
